<svg version="1.2" xmlns="http://www.w3.org/2000/svg" viewBox="0 0 40 41" width="16" height="16">
	<title>ic_cronos_16-svg</title>
	<style>
		.s0 { fill: none } 
		.s1 { fill: #ffffff } 
		.s2 { fill: #343434 } 
		.s3 { fill: #8c8c8c } 
		.s4 { fill: #3c3c3b } 
		.s5 { fill: #141414 } 
		.s6 { fill: #393939 } 
	</style>
	<path id="Layer" class="s0" d="m0 0h40v40h-40z"/>
	<path id="Layer" class="s1" d="m39.4 24.8c-2 7.9-8.4 13.8-16.4 15-8.1 1.2-16-2.6-20.2-9.5-4.1-6.9-3.7-15.7 1.1-22.2 4.8-6.5 13.1-9.5 20.9-7.5 2.6 0.6 5 1.8 7.1 3.3 2.1 1.6 3.9 3.6 5.2 5.8 1.4 2.3 2.3 4.8 2.7 7.3 0.4 2.6 0.2 5.3-0.4 7.8z"/>
	<g id="Layer">
		<path id="Layer" class="s2" d="m20 6l-0.2 0.7v18.4l0.2 0.2 8.6-5z"/>
		<path id="Layer" class="s3" d="m20 6l-8.6 14.3 8.6 5z"/>
		<path id="Layer" class="s4" d="m20 27l-0.1 0.1v6.6l0.1 0.3 8.6-12.1z"/>
		<path id="Layer" class="s3" d="m20 34v-7l-8.6-5.1z"/>
		<path id="Layer" class="s5" d="m20 25.3l8.6-5-8.6-3.9z"/>
		<path id="Layer" class="s6" d="m11.4 20.3l8.6 5v-8.9z"/>
	</g>
</svg>