<svg version="1.2" xmlns="http://www.w3.org/2000/svg" viewBox="0 0 24 24" width="24" height="24">
	<title>icon-ethereum-svg</title>
	<style>
		.s0 { fill: #627eea } 
		.s1 { opacity: .6;fill: #ffffff } 
		.s2 { fill: #ffffff } 
		.s3 { opacity: .2;fill: #ffffff } 
	</style>
	<path id="Layer" class="s0" d="m12 24c-6.6 0-12-5.4-12-12 0-6.6 5.4-12 12-12 6.6 0 12 5.4 12 12 0 6.6-5.4 12-12 12z"/>
	<path id="Layer" class="s1" d="m12 3v6.4l5.2 2.4z"/>
	<path id="Layer" class="s2" d="m12 3l-5.3 8.8 5.3-2.4z"/>
	<path id="Layer" class="s1" d="m12 15.9v4.3l5.3-7.4z"/>
	<path id="Layer" class="s2" d="m12 20.2v-4.3l-5.3-3.1z"/>
	<path id="Layer" class="s3" d="m12 14.9l5.2-3.1-5.2-2.4z"/>
	<path id="Layer" class="s1" d="m6.8 11.8l5.2 3.1v-5.5z"/>
</svg>