<svg version="1.2" xmlns="http://www.w3.org/2000/svg" viewBox="0 0 512 512" width="24" height="24">
	<title>wallet-svg</title>
	<style>
		.s0 { fill: #000000 } 
	</style>
	<g id="Layer">
		<g id="Layer">
			<g id="Layer">
				<path id="Layer" class="s0" d="m72.7 477.8h17.1c4.7 0 8.5-3.8 8.5-8.5 0-4.7-3.8-8.5-8.5-8.5h-17.1c-4.7 0-8.5 3.8-8.5 8.5 0 4.7 3.8 8.5 8.5 8.5z"/>
				<path id="Layer" class="s0" d="m175.1 477.8h17.1c4.7 0 8.5-3.8 8.5-8.5 0-4.7-3.8-8.5-8.5-8.5h-17.1c-4.7 0-8.5 3.8-8.5 8.5 0 4.7 3.8 8.5 8.5 8.5z"/>
				<path id="Layer" class="s0" d="m175.1 170.6h17.1c4.7 0 8.5-3.8 8.5-8.5 0-4.7-3.8-8.5-8.5-8.5h-17.1c-4.7 0-8.5 3.8-8.5 8.5 0 4.7 3.8 8.5 8.5 8.5z"/>
				<path id="Layer" class="s0" d="m226.3 477.8h17.1c4.7 0 8.5-3.8 8.5-8.5 0-4.7-3.8-8.5-8.5-8.5h-17.1c-4.7 0-8.5 3.8-8.5 8.5 0 4.7 3.8 8.5 8.5 8.5z"/>
				<path id="Layer" class="s0" d="m123.9 170.6h17.1c4.7 0 8.5-3.8 8.5-8.5 0-4.7-3.8-8.5-8.5-8.5h-17.1c-4.7 0-8.5 3.8-8.5 8.5 0 4.7 3.8 8.5 8.5 8.5z"/>
				<path id="Layer" class="s0" d="m72.7 170.6h17.1c4.7 0 8.5-3.8 8.5-8.5 0-4.7-3.8-8.5-8.5-8.5h-17.1c-4.7 0-8.5 3.8-8.5 8.5 0 4.7 3.8 8.5 8.5 8.5z"/>
				<path id="Layer" class="s0" d="m499.4 375.4c-4.7 0-8.5 3.9-8.5 8.6v85.3c0 14.1-11.5 25.6-25.6 25.6h-409.6c-14.1 0-25.6-11.5-25.6-25.6v-341.3c0-15.5 14.4-26.5 28-30.2l256.8-77.1c5.1-2.1 21.9-6.6 31.2-0.3 5.5 3.6 8.2 11.1 8.2 22.2 0 4.8 3.9 8.6 8.6 8.6 4.7 0 8.5-3.8 8.5-8.6 0-17.1-5.3-29.3-15.7-36.4-18.4-12.4-44.3-2.5-46.5-1.6l-255.8 76.7c-20.1 5.5-40.4 22.1-40.4 46.7v341.3c0 23.5 19.1 42.7 42.7 42.7h409.6c23.5 0 42.6-19.2 42.6-42.7v-85.3c0-4.7-3.8-8.6-8.5-8.6z"/>
				<path id="Layer" class="s0" d="m226.3 170.6h17.1c4.7 0 8.5-3.8 8.5-8.5 0-4.7-3.8-8.5-8.5-8.5h-17.1c-4.7 0-8.5 3.8-8.5 8.5 0 4.7 3.8 8.5 8.5 8.5z"/>
				<path id="Layer" class="s0" d="m123.9 477.8h17.1c4.7 0 8.5-3.8 8.5-8.5 0-4.7-3.8-8.5-8.5-8.5h-17.1c-4.7 0-8.5 3.8-8.5 8.5 0 4.7 3.8 8.5 8.5 8.5z"/>
				<path id="Layer" fill-rule="evenodd" class="s0" d="m525 290.1v51.2c0 9.4-7.7 17.1-17.1 17.1h-187.7c-9.4 0-17.1-7.7-17.1-17.1v-51.2c0-9.4 7.7-17.1 17.1-17.1h170.7v-110.9c0-14.1-11.5-25.6-25.6-25.6h-409.6c-4.4 0-8.1-3.3-8.5-7.7-0.4-4.4 2.5-8.4 6.9-9.2l358.4-68.3c0.4-0.1 17.3-3.6 30.3 6.9 9.3 7.4 13.9 19.4 13.9 35.6 0 4.8-3.8 8.6-8.5 8.6-4.7 0-8.5-3.8-8.5-8.6 0-10.7-2.5-18.2-7.5-22.2-6.6-5.4-16.3-3.6-16.4-3.5l-269.7 51.3h319.2c23.5 0 42.6 19.2 42.6 42.7v110.9c9.4 0 17.1 7.7 17.1 17.1zm-17.1 51.2v-51.2h-187.7v51.2z"/>
				<path id="Layer" class="s0" d="m397 170.6c4.7 0 8.5-3.8 8.5-8.5 0-4.7-3.8-8.5-8.5-8.5h-17.1c-4.7 0-8.5 3.8-8.5 8.5 0 4.7 3.8 8.5 8.5 8.5z"/>
				<path id="Layer" class="s0" d="m345.8 170.6c4.7 0 8.5-3.8 8.5-8.5 0-4.7-3.8-8.5-8.5-8.5h-17.1c-4.7 0-8.5 3.8-8.5 8.5 0 4.7 3.8 8.5 8.5 8.5z"/>
				<path id="Layer" class="s0" d="m448.2 170.6c4.7 0 8.5-3.8 8.5-8.5 0-4.7-3.8-8.5-8.5-8.5h-17.1c-4.7 0-8.5 3.8-8.5 8.5 0 4.7 3.8 8.5 8.5 8.5z"/>
				<path id="Layer" class="s0" d="m346.1 307.2h-0.1c-4.7 0-8.5 3.8-8.5 8.5 0 4.7 3.8 8.5 8.6 8.5 4.7 0 8.5-3.8 8.5-8.5 0-4.7-3.8-8.5-8.5-8.5z"/>
				<path id="Layer" class="s0" d="m345.8 477.8c4.7 0 8.5-3.8 8.5-8.5 0-4.7-3.8-8.5-8.5-8.5h-17.1c-4.7 0-8.5 3.8-8.5 8.5 0 4.7 3.8 8.5 8.5 8.5z"/>
				<path id="Layer" class="s0" d="m448.2 477.8c4.7 0 8.5-3.8 8.5-8.5 0-4.7-3.8-8.5-8.5-8.5h-17.1c-4.7 0-8.5 3.8-8.5 8.5 0 4.7 3.8 8.5 8.5 8.5z"/>
				<path id="Layer" class="s0" d="m277.5 170.6h17.1c4.7 0 8.5-3.8 8.5-8.5 0-4.7-3.8-8.5-8.5-8.5h-17.1c-4.7 0-8.5 3.8-8.5 8.5 0 4.7 3.8 8.5 8.5 8.5z"/>
				<path id="Layer" class="s0" d="m277.5 477.8h17.1c4.7 0 8.5-3.8 8.5-8.5 0-4.7-3.8-8.5-8.5-8.5h-17.1c-4.7 0-8.5 3.8-8.5 8.5 0 4.7 3.8 8.5 8.5 8.5z"/>
				<path id="Layer" class="s0" d="m397 477.8c4.7 0 8.5-3.8 8.5-8.5 0-4.7-3.8-8.5-8.5-8.5h-17.1c-4.7 0-8.5 3.8-8.5 8.5 0 4.7 3.8 8.5 8.5 8.5z"/>
			</g>
		</g>
	</g>
</svg>